# xmcd
#
# Track frame offsets:
#	150
#	12950
#	24454
#	38390
#	53918
#	67217
#	82650
#	94986
#	106446
#	118496
#	132363
#	144634
#	156925
#	177990
#	194193
#	217128
#	237950
#	260251
#	281823
#	302751
#	319297
#	337308
#
# Disc length: 4726 seconds
# Revision: 0
# Processed by: cddbd v1.5.2PL0 Copyright (c) Steve Scherf et al.
# Submitted via: dBpowerAMP V12.0
#
DISCID=58127416
DTITLE=Muddy Waters - They Call Me Muddy Waters - Live At Mister Kelly's
DYEAR=1971
DGENRE=Blues
TTITLE0=When the Eagle Flies
TTITLE1=Crawlin' Kingsnake
TTITLE2=County Jail
TTITLE3=It's All Over
TTITLE4=Bird Nest on the Ground
TTITLE5=They Call Me Muddy Waters
TTITLE6=Find Yourself Another Fool
TTITLE7=Kinfolk's Blues
TTITLE8=Making Friends
TTITLE9=Blind Man
TTITLE10=Two Steps Forward
TTITLE11=Howling Wolf
TTITLE12=What Is That She Got
TTITLE13=You Don't Have to Go
TTITLE14=Strange Woman
TTITLE15=Blow Wind Blow
TTITLE16=Country Boy
TTITLE17=Nine Below Zero
TTITLE18=Stormy Monday Blues
TTITLE19=Mudcat
TTITLE20=Boom, Boom
TTITLE21=C.C. Woman
EXTD=
EXTT0=
EXTT1=
EXTT2=
EXTT3=
EXTT4=
EXTT5=
EXTT6=
EXTT7=
EXTT8=
EXTT9=
EXTT10=
EXTT11=
EXTT12=
EXTT13=
EXTT14=
EXTT15=
EXTT16=
EXTT17=
EXTT18=
EXTT19=
EXTT20=
EXTT21=
PLAYORDER=
